<svg width="30" height="30" viewBox="0 0 30 30" fill="none" xmlns="http://www.w3.org/2000/svg">
<path d="M18.1101 15.326C18.1101 13.7028 16.7838 12.3819 15.1535 12.3819C13.5235 12.3819 12.1972 13.7028 12.1972 15.326C12.1972 16.9497 13.5235 18.2704 15.1535 18.2704C16.7838 18.2704 18.1101 16.9497 18.1101 15.326ZM22.5026 0H7.49744C3.36335 0 0 3.3497 0 7.46692V9.5474H11.0325C12.1966 8.72153 13.6184 8.23365 15.1535 8.23365C16.6887 8.23365 18.1107 8.72153 19.2748 9.5474H30V7.46692C30 3.34967 26.6366 0 22.5026 0ZM25.5389 7.10161C25.5389 7.55789 25.1642 7.93128 24.7059 7.93128H22.1319C21.6737 7.93128 21.2989 7.55789 21.2989 7.10161V4.53796C21.2989 4.08171 21.6737 3.7083 22.1319 3.7083H24.7059C25.1642 3.7083 25.5389 4.08165 25.5389 4.53796V7.10161ZM22.2753 15.326C22.2753 19.2372 19.0803 22.4186 15.1535 22.4186C11.2266 22.4186 8.0319 19.2372 8.0319 15.326C8.0319 14.2493 8.27542 13.2282 8.70848 12.3129H0V22.5331C0 26.6506 3.36335 30 7.49744 30H22.5026C26.6367 30 30 26.6506 30 22.5331V12.3129H21.5987C22.0318 13.2282 22.2753 14.2493 22.2753 15.326Z" fill="#CA69E0"/>
</svg>
