<svg width="32" height="32" viewBox="0 0 32 32" fill="none" xmlns="http://www.w3.org/2000/svg">
<path d="M5 6C3.355 6 2 7.355 2 9V23C2 24.645 3.355 26 5 26H27C28.645 26 30 24.645 30 23V9C30 7.355 28.645 6 27 6H5ZM5 8H27C27.566 8 28 8.434 28 9V23C28 23.566 27.566 24 27 24H5C4.434 24 4 23.566 4 23V9C4 8.434 4.434 8 5 8ZM12 9C8.145 9 5 12.145 5 16C5 19.855 8.145 23 12 23C13.4303 23.0059 14.8275 22.5693 16 21.75C17.1728 22.5687 18.5698 23.0052 20 23C23.855 23 27 19.855 27 16C27 12.145 23.855 9 20 9C18.5698 8.99478 17.1728 9.43134 16 10.25C14.8275 9.43074 13.4303 8.99413 12 9ZM12 11C13.281 11 14.43 11.496 15.313 12.281C14.8957 12.7956 14.5678 13.3767 14.343 14H16.563C16.703 14.32 16.836 14.652 16.906 15H14.094C14.0347 15.3301 14.0033 15.6646 14 16C14 16.344 14.04 16.676 14.094 17H16.906C16.836 17.348 16.703 17.68 16.563 18H14.343C14.566 18.629 14.903 19.207 15.313 19.719C14.43 20.504 13.28 21 12 21C9.227 21 7 18.773 7 16C7 13.227 9.227 11 12 11ZM20 11C22.773 11 25 13.227 25 16C25 18.773 22.773 21 20 21C19.1203 20.997 18.2573 20.7595 17.5 20.312C18.4734 19.0857 19.0022 17.5656 19 16C19.0024 14.434 18.4736 12.9135 17.5 11.687C18.2574 11.2398 19.1204 11.0027 20 11Z" fill="#AAAAAA"/>
</svg>
