<svg width="32" height="32" viewBox="0 0 32 32" fill="none" xmlns="http://www.w3.org/2000/svg">
<g clip-path="url(#clip0_346_4)">
<path d="M15.9998 -0.0341797C7.15884 -0.0341797 -0.0351562 7.15782 -0.0351562 15.9998C-0.0351562 24.8418 7.15884 32.0338 15.9998 32.0338C24.8408 32.0338 32.0348 24.8418 32.0348 15.9998C32.0348 7.15782 24.8408 -0.0341797 15.9998 -0.0341797ZM15.9998 30.9658C7.74784 30.9658 1.03484 24.2518 1.03484 15.9998C1.03484 7.74782 7.74784 1.03382 15.9998 1.03382C24.2518 1.03382 30.9648 7.74782 30.9648 15.9998C30.9648 24.2518 24.2518 30.9658 15.9998 30.9658Z" fill="#CA69E0"/>
<path d="M24.7937 11.0458C24.9046 10.8405 24.996 10.6252 25.0667 10.4028C25.0994 10.2997 25.1001 10.189 25.0686 10.0855C25.0371 9.9819 24.975 9.89034 24.8904 9.82285C24.8057 9.75536 24.7027 9.71512 24.5947 9.70744C24.4868 9.69975 24.379 9.72499 24.2857 9.77982C23.7733 10.0842 23.2186 10.311 22.6397 10.4528C21.937 9.81859 21.0243 9.467 20.0777 9.46582C19.5634 9.46622 19.0545 9.57045 18.5815 9.77228C18.1085 9.97411 17.6811 10.2694 17.3249 10.6404C16.9688 11.0114 16.6912 11.4505 16.5088 11.9313C16.3265 12.4122 16.2431 12.925 16.2637 13.4388C14.0147 13.1557 11.961 12.0177 10.5287 10.2608C10.4738 10.1943 10.4037 10.1419 10.3243 10.1083C10.2448 10.0746 10.1584 10.0606 10.0725 10.0675C9.98647 10.0744 9.9034 10.1019 9.83033 10.1477C9.75725 10.1936 9.69631 10.2564 9.6527 10.3308C9.32472 10.8937 9.14646 11.5313 9.1349 12.1827C9.12335 12.8341 9.27889 13.4776 9.5867 14.0518C9.51121 14.0646 9.43868 14.091 9.3727 14.1298C9.29185 14.1814 9.22528 14.2525 9.17914 14.3365C9.133 14.4206 9.10878 14.5149 9.1087 14.6108C9.1087 15.7458 9.6137 16.7878 10.4277 17.4958L10.3927 17.5308C10.3312 17.6003 10.289 17.6847 10.27 17.7755C10.2511 17.8663 10.2561 17.9605 10.2847 18.0488C10.4544 18.5783 10.7379 19.0644 11.1151 19.4729C11.4924 19.8814 11.9543 20.2025 12.4687 20.4138C11.4123 20.9292 10.2301 21.1301 9.0627 20.9928C8.94271 20.9806 8.82204 21.0085 8.71962 21.0722C8.61719 21.1359 8.53879 21.2318 8.4967 21.3448C8.45628 21.4587 8.45552 21.5829 8.49455 21.6972C8.53357 21.8116 8.6101 21.9094 8.7117 21.9748C10.2987 22.9934 12.145 23.5345 14.0307 23.5338C20.2107 23.5338 23.9047 18.5138 23.9047 13.6608L23.9037 13.4968C24.5026 13.0292 25.0229 12.4688 25.4447 11.8368C25.5086 11.7413 25.54 11.6277 25.5343 11.5129C25.5286 11.3981 25.4861 11.2882 25.413 11.1995C25.34 11.1108 25.2403 11.0479 25.1288 11.0202C25.0172 10.9925 24.8997 11.0015 24.7937 11.0458ZM23.0487 12.8008C22.9761 12.853 22.9178 12.9225 22.879 13.0031C22.8402 13.0836 22.8223 13.1726 22.8267 13.2618C22.8327 13.3938 22.8357 13.5278 22.8357 13.6598C22.8357 17.9878 19.5427 22.4648 14.0317 22.4648C13.0488 22.4653 12.0728 22.3003 11.1447 21.9768C12.2563 21.7638 13.3005 21.2871 14.1897 20.5868C14.2763 20.5186 14.3396 20.4253 14.3711 20.3196C14.4026 20.214 14.4008 20.1012 14.3657 19.9967C14.3307 19.8922 14.2643 19.8011 14.1755 19.7358C14.0867 19.6704 13.9799 19.6341 13.8697 19.6318C13.4385 19.6236 13.0153 19.5141 12.6342 19.3123C12.2531 19.1105 11.9248 18.8219 11.6757 18.4698C11.9287 18.4528 12.1767 18.4108 12.4177 18.3458C12.5343 18.3146 12.637 18.2448 12.7088 18.1477C12.7807 18.0507 12.8175 17.9322 12.8133 17.8115C12.8091 17.6908 12.7642 17.5751 12.6858 17.4833C12.6074 17.3915 12.5002 17.3289 12.3817 17.3058C11.8947 17.2068 11.4438 16.9772 11.0773 16.6416C10.7107 16.3061 10.4423 15.8772 10.3007 15.4008C10.5667 15.4678 10.8397 15.5068 11.1127 15.5158C11.3477 15.5148 11.5657 15.3708 11.6387 15.1448C11.7117 14.9188 11.6257 14.6698 11.4267 14.5378C10.9562 14.2243 10.5939 13.7732 10.3893 13.2461C10.1847 12.719 10.1479 12.1417 10.2837 11.5928C12.0207 13.3751 14.3663 14.4365 16.8517 14.5648C17.0277 14.5658 17.1817 14.5028 17.2887 14.3738C17.3957 14.2448 17.4367 14.0738 17.3987 13.9098C17.2619 13.3208 17.3231 12.7032 17.5728 12.1524C17.8224 11.6017 18.2466 11.1486 18.7797 10.8633C19.3128 10.5779 19.9251 10.4762 20.5218 10.574C21.1186 10.6717 21.6664 10.9633 22.0807 11.4038C22.1428 11.4701 22.2207 11.5194 22.3071 11.5472C22.3936 11.575 22.4856 11.5804 22.5747 11.5628C22.7397 11.5298 22.9027 11.4918 23.0637 11.4478C22.9911 11.5022 22.9157 11.5526 22.8377 11.5988C22.734 11.6623 22.655 11.7593 22.6138 11.8737C22.5726 11.9881 22.5716 12.1131 22.611 12.2282C22.6503 12.3433 22.7277 12.4415 22.8304 12.5067C22.933 12.5719 23.0548 12.6001 23.1757 12.5868L23.3577 12.5638C23.2575 12.6464 23.1544 12.7254 23.0487 12.8008Z" fill="#CA69E0"/>
</g>
<defs>
<clipPath id="clip0_346_4">
<rect width="32" height="32" fill="white"/>
</clipPath>
</defs>
</svg>
