<svg width="28" height="20" viewBox="0 0 28 20" fill="none" xmlns="http://www.w3.org/2000/svg">
<path d="M3 0C1.355 0 0 1.355 0 3V17C0 18.645 1.355 20 3 20H25C26.645 20 28 18.645 28 17V3C28 1.355 26.645 0 25 0H3ZM3 2H25C25.565 2 26 2.435 26 3V17C26 17.565 25.565 18 25 18H3C2.435 18 2 17.565 2 17V3C2 2.435 2.435 2 3 2ZM17.406 6.375C15.48 6.375 14.469 7.325 14.469 8.531C14.469 10.714 17.029 10.411 17.029 11.531C17.029 11.724 16.869 12.158 15.809 12.158C14.749 12.158 14.059 11.783 14.059 11.783L13.749 13.223C13.749 13.223 14.404 13.628 15.719 13.628C17.029 13.628 18.873 12.62 18.873 11.158C18.873 9.402 16.31 9.286 16.31 8.503C16.31 8.103 16.65 7.783 17.56 7.783C18.154 7.783 18.81 8.253 18.81 8.253L19.124 6.723C19.124 6.723 18.254 6.378 17.404 6.378L17.406 6.375ZM9.188 6.5L7.5 11.438C7.5 11.438 7.416 11.01 7.375 10.75C6.42 8.61 4.875 7.812 4.875 7.812L6.345 13.406H8.345L11.155 6.5H9.19H9.188ZM11.875 6.5L10.781 13.406H12.627L13.72 6.5H11.875ZM21.813 6.5L18.813 13.406H20.625L21 12.438H23.313L23.5 13.406H25.156L23.75 6.5H21.813ZM2.843 6.53C2.843 6.53 6.44 7.635 7.281 10.344L6.658 7.219C6.658 7.219 6.383 6.529 5.658 6.529H2.844L2.843 6.53ZM22.5 8.5L23.03 11.094H21.53L22.5 8.5Z" fill="#AAAAAA"/>
</svg>
